# xmcd CD database file
#
# Track frame offsets:
#	150
#	16266
#	28682
#	45639
#	61730
#	74227
#	102074
#	120346
#	135513
#	162511
#	201276
#	212680
#	242101
#	260374
#	283124
#	295315
#	310410
#
# Disc length: 4336 seconds
#
# Revision: 1
# Processed by: cddbd v1.5PL3 Copyright (c) Steve Scherf et al.
# Submitted via: CDex 1.51
#
DISCID=fe10ee11
DTITLE=Thomas Stelzer - Best of Thomas Stelzer CD2
DYEAR=2000
DGENRE=Blues
TTITLE0=Hold it
TTITLE1=Falling Down
TTITLE2=All night long
TTITLE3=I guess that's why they call it the Blues
TTITLE4=In the midnight hour
TTITLE5=Stormy monday
TTITLE6=Strugg'ling
TTITLE7=South Africa
TTITLE8=Ridin' on a Louisiana train
TTITLE9=Down in New Orleans
TTITLE10='t aint nobody bussines
TTITLE11=Train train
TTITLE12=Jocomo Jocomo
TTITLE13=That's my solution
TTITLE14=Joshua
TTITLE15=People get ready
TTITLE16=This little light of mine
EXTD=YEAR: 2000
EXTT0=
EXTT1=
EXTT2=
EXTT3=
EXTT4=
EXTT5=
EXTT6=
EXTT7=
EXTT8=
EXTT9=
EXTT10=
EXTT11=
EXTT12=
EXTT13=
EXTT14=
EXTT15=
EXTT16=
PLAYORDER=
